P1
100 80
0000000000000000000000000000000000000000000000000000000000000000000000
0000000000000000000000000000000000000000000000000000000000000000000000
0000000000000000000000000000000000000000000000000000000000000000000000
0000000000000000000000000000000000000000000000000000000000000000000000
0000000000000000000000000000000000000000000000000000000000000000000000
0000000000000000000000000000000000000000000000000000000000000000000000
0000000000000000000000000000000000000000000000000000000000000000000000
0000000000000000000000000000000000000000000000000111111111111100000000
0000000000000000000000000000000000000000000000000000000000000000000000
0000000001111111111111000000000000000000000000000000000000000000000000
0000111111111111111111110000000000000001111111111111000000000000000000
0000000000000000000000000000000000111111111111111111110000000000000001
1111111111110000000000000000000000000000000000000000000000000000111111
1111111111111100000000000000011111111111110000000000000000000000000000
0000000000000000000000001111111111111111111100000000000000011111111111
1100000000000000000000000000000000000000000000000000001110000111111111
1111000000000000000111111111111100000000000000000000000000000000000000
0000000000000011100001111111111111000000000000000111111111111100000000
0000000000000000000000000000000000000000000011100001111111111111000000
0000000001111111111111000000000000000000000000000000000000000000000000
0000111000011111111111110000000000000001111111111111000000000000000000
0000000000000000000000000000000000111000011111111111110000000000000001
1111111111110000000000000000000000000000000000000000000000000000111111
1111111111111100000000000000011111111111110000000000000000000000000000
0000000000000000000000001111111111111111111100000000000000000000000000
0000000000000000000000000000000000000000000000000000001111111111111111
1111000000000000000000000000000000000000000000000000000000000000000000
0000000000000011111111111111111111000000000000000000000000000000000000
0000000000000000000000000000000000000000000011111111111111111111000000
0000000000000000000000000000000000000000000000000000000000000000000000
0000111111111111111111110000000000000000000000000000000000000000000000
0000000000000000000000000000000000111111100011111111110000000000000000
0000000000000000000000000000000000000000000000000000000000000000111111
1000111111111100000000000000000000000000000000000000000000000000000000
0000000000000000000000001111111000111111111100000000000000000000000000
0000000000000000000000000000000000000000000000000000001111111000111111
1111000000000000000000000000000000000000000000000000000000000000000000
0000000000000011111111111111111111000000000000000000000000000000000000
0000000000000000000000000000000000000000000011111111111111111111000000
0000000000000000000000000000000000000000000000000000000000000000000000
0000111111111111111111110000000000000000000000000000000000000000000000
0000000000000000000000000000000000111111111111111111111111111111111110
0000000000000000000000000010111100000000000000000000000000000000111111
1111111111111111111111111111100000000000000000000000000111111111000000
0000000000000000000000001111111111111111111111111111111111100000000000
0000000000000111111111111000000000000000000000000000001111111111111111
1111111111111111111000000000000000000000000111111111111110000000000000
0000000000000011111111111111111111111111111111111000000000000000000000
0011111111111111100000000000000000000000000000000000000000011111111111
1111111110000000000000000000000111111111111111100000000000000000000000
0000000000000000000111111111111111111110000000000000000000000111111111
1111111100000000000000000000000000000000000000000111110001111111111110
0000000000000000000001111111111111111100000000000000000000000000000000
0000000001111100011111111111100000000000000000000001111111111111111100
0000000000000000000000000000000000000001111100011111111111100000000000
0000000000001111111111111110000000000000000000000000000000000000000001
1111000111111111111000000000000000000000001111111111111110000000000000
0000000000000000000000000000011111000111111111111000000000000000000000
0001111111111111000000000000000000000000000000000000000000011111000111
1111111110000000000000000000000000111111111111000000000000000000000000
0000000000000000000111111111111111111110000000000000000000000000111111
1111000000000000000000000000000000000000000000000111111111111111111110
0000000000000000000000000010111010000000000000000000000000000000000000
0000000001111111111111111111100000000000000000000000000000000000000000
0000000000000000000000000000000000000001111111111111111111100000000000
0000000000000000000000000000000000000000000000000000000000000000000001
1111111111111111111000000000000000000000000000000000000000000000000000
0000000000000000000000000000011111111111111111111000000000000000000000
0000000000000000000000000000000000000000000000000000000000011111111111
1111111110000000000000000000000000000000000000000000000000000000000000
0000000000000000000111111111111111111110000000000000000000000000000000
0000000000000000000000000000000000000000000000000111111111111111111110
0000000000000000000000000000000000000000000000000000000000000000000000
0000000001111111111111111111100000000000000000000000000000000000000000
0000000000000000000000000000000000000001111111111111111111100000000000
0000000001011110000000000000000000000000000000000000000000000000000001
1111111111111111111000000000000000000111111111110000000000000000000000
0000000000000000000000000000011111111111111111111000000000000000011111
1111111111000000000000000000000000000000000000000000000000011111111111
1111111110000000000000000111111111111111100000000000000000000000000000
0000000000000000000000000000000000000000000000000000011111111111111111
1100000000000000000000000000000000000000000000000000000000000000000000
0000000000000111111111111111111100000000000000000000000000000000000000
0000000000000000000000000000000000000000001111111111111111111110000000
0000000000000000000000000000000000000000000000000000000000000000000000
0011111000011111111111100000000000000000000000000000000000000000000000
0000000000000000000000000000000111111000011111111111110000000000000000
0000000000000000000000000000000000000000000000000000000000000111111000
0111111111111100000000000000000000000000000000000000000000000000000000
0000000000000000000001111110000111111111111100000000000000000000000000
0000000000000000000000000000000000000000000000000001111110000111111111
1111000000000000000000000000000000000000000000000000000000000000000000
0000000000001111111111111111111110000000000000000000000000000000000000
0000000000000000000000000000000000000000001111111111111111111110000000
0000000000000000000000000000000000000000000000000000000000000000000000
0011111111111111111111100000000000000000000000000000000000000000000000
0000000000000000000000000000000001111111111111111111100000000000000000
0000000000000000000000000000000000000000000000000000000000000001111111
1111111111100000000000000000000000000000000000000000000000000000000000
0000000000000000000000000111111111111111100000000000000000000000000000
0000000000000000000000000000000000000000000000000000000111111111111110
0000000000000000000000000000000000000000000000000000000000000000000000
0000000000000000011111111111100000000000000000000000000000000000000000
0000000000000000000000000000000000000000000000000011110100000000000000
0000000000000000000000000000000000000000000000000000000000000000000000
0000000000000000000000000000000000000000000000000000000000000000000000
0000000000000000000000000000000000000000000000000000000000000000000000
0000000000000000000000000000000000000000000000000000000000000000000000
0000000000000000000000000000000000000000000000000000000000000000000000
0000000000000000000000000000000000000000000000000000000000000000000000
0000000000000000000000000000000000000000000000000000000000000000000000
0000000000000000000000000000000000000000000000000000000000000000000000
0000000000000000000000000000000000000000000000000000000000000000000000
0000000000000000000000000000000000000000000000000000000000000000000000
00000000000000000000